<svg xmlns="http://www.w3.org/2000/svg" viewBox="0 0 1600 1200" role="img" aria-label="FlightBrick 100 — compact 100W GaN charger">
  <rect width="1600" height="1200" fill="#0c121c"/>
  <rect x="360" y="280" width="880" height="640" rx="40" fill="#141c28"/>
  <rect x="500" y="380" width="420" height="360" rx="32" fill="#1f2a38"/>
  <rect x="920" y="380" width="70" height="360" rx="16" fill="#00ffc2"/>
  <rect x="540" y="430" width="280" height="96" rx="12" fill="#04060a"/>
  <text x="680" y="494" text-anchor="middle" fill="#00ffc2" font-family="ui-monospace, SFMono-Regular, Menlo, monospace" font-size="42" font-weight="600" letter-spacing="6">100W</text>
  <rect x="560" y="560" width="64" height="40" rx="7" fill="#04060a"/>
  <rect x="572" y="572" width="40" height="8" rx="2" fill="#f3fff9"/>
  <rect x="648" y="560" width="64" height="40" rx="7" fill="#04060a"/>
  <rect x="660" y="572" width="40" height="8" rx="2" fill="#f3fff9"/>
  <rect x="736" y="560" width="64" height="40" rx="7" fill="#04060a"/>
  <circle cx="768" cy="580" r="9" fill="#9db0be"/>
  <circle cx="1120" cy="600" r="70" fill="none" stroke="#00ffc2" stroke-width="10"/>
  <path d="M1120 558 v84 M1078 600 h84" stroke="#f3fff9" stroke-width="8" stroke-linecap="round"/>
</svg>
