<svg xmlns="http://www.w3.org/2000/svg" viewBox="0 0 1600 1200" role="img" aria-label="FlightBrick 100  compact 100W GaN charger">
  <rect width="1600" height="1200" fill="#04060a"/>
  <rect x="430" y="340" width="520" height="420" rx="36" fill="#1a222c"/>
  <rect x="448" y="358" width="484" height="384" rx="24" fill="#0c121c"/>
  <rect x="950" y="358" width="72" height="384" rx="18" fill="#00ffc2"/>
  <rect x="500" y="430" width="280" height="88" rx="10" fill="#141c28"/>
  <text x="640" y="486" text-anchor="middle" fill="#00ffc2" font-family="ui-monospace, monospace" font-size="36" letter-spacing="4">100W</text>
  <rect x="548" y="560" width="56" height="36" rx="6" fill="#04060a"/>
  <rect x="558" y="568" width="36" height="8" rx="2" fill="#9db0be"/>
  <rect x="632" y="560" width="56" height="36" rx="6" fill="#04060a"/>
  <rect x="642" y="568" width="36" height="8" rx="2" fill="#9db0be"/>
  <rect x="716" y="560" width="56" height="36" rx="6" fill="#04060a"/>
  <circle cx="744" cy="578" r="8" fill="#7a8c9c"/>
  <circle cx="1080" cy="560" r="86" fill="none" stroke="#1c2a38" stroke-width="18"/>
  <circle cx="1080" cy="560" r="54" fill="none" stroke="#00ffc2" stroke-width="8"/>
  <path d="M1080 520 v80 M1040 560 h80" stroke="#f3fff9" stroke-width="6" stroke-linecap="round"/>
</svg>
