<svg xmlns="http://www.w3.org/2000/svg" viewBox="0 0 1600 1200" role="img" aria-label="Twin Lead 240 — right-angle USB-C cable pair">
  <rect width="1600" height="1200" fill="#0c121c"/>
  <rect x="220" y="220" width="1160" height="760" rx="40" fill="#141c28"/>
  <path d="M380 400 C560 260 860 340 980 520 C1100 700 1260 720 1360 620" fill="none" stroke="#2a3544" stroke-width="40" stroke-linecap="round"/>
  <path d="M380 400 C560 260 860 340 980 520 C1100 700 1260 720 1360 620" fill="none" stroke="#c5d2dc" stroke-width="14" stroke-linecap="round"/>
  <path d="M420 800 C600 940 880 860 1000 700 C1120 540 1280 520 1380 620" fill="none" stroke="#2a3544" stroke-width="40" stroke-linecap="round"/>
  <path d="M420 800 C600 940 880 860 1000 700 C1120 540 1280 520 1380 620" fill="none" stroke="#00ffc2" stroke-width="14" stroke-linecap="round"/>
  <rect x="300" y="368" width="110" height="56" rx="10" fill="#1a222c"/>
  <rect x="280" y="378" width="36" height="36" rx="5" fill="#00ffc2"/>
  <rect x="340" y="768" width="110" height="56" rx="10" fill="#1a222c"/>
  <rect x="320" y="778" width="36" height="36" rx="5" fill="#00ffc2"/>
  <rect x="1350" y="592" width="110" height="56" rx="10" fill="#1a222c"/>
  <rect x="1444" y="602" width="36" height="36" rx="5" fill="#00ffc2"/>
</svg>
